<!-- icon666.com - MILLIONS vector ICONS FREE --><svg enable-background="new 0 0 520 520" viewBox="0 0 520 520" xmlns="http://www.w3.org/2000/svg"><g id="_x38_99_x2C__Bubble_x2C__Call_x2C__Communications_x2C__Conversation_x2C__Speech"><g><path d="m462.5 47.5c13.81 0 25 11.19 25 25s-11.19 25-25 25-25-11.19-25-25 11.19-25 25-25z" fill="#73bcff"></path><circle cx="112.5" cy="417.5" fill="#73bcff" r="40"></circle><path d="m390.51 373.9c13 13 13 34.08 0 47.08l-24.06 24.06-99.181-99.17 24.07-24.07c13-13 34.07-13 47.07 0 6.351 6.349 47.291 47.291 52.101 52.1z" fill="#757d8c"></path><path d="m188.2 171.59c13 12.99 13 34.07 0 47.07l-24.07 24.07-99.17-99.18 24.06-24.06c13-13 34.08-13 47.08 0 4.586 4.586 45.669 45.67 52.1 52.1z" fill="#757d8c"></path><path d="m366.45 445.05-16.13 16.13c-1.261 1.261-2.561 2.45-3.91 3.551l-.32-.381-300.791-300.78c1.09-1.34 2.27-2.63 3.52-3.88l16.14-16.14 99.17 99.18 103.14 103.14 99.181 99.17z" fill="#33383f"></path><path d="m346.09 464.35.32.381c-21.9 18.14-54.4 16.949-74.91-3.551l-222.681-222.68c-20.51-20.52-21.69-53.04-3.52-74.93z" fill="#3f4751"></path><path d="m387.5 164.5v61c0 6.63-5.37 12-12 12h-61.75l-41.25 30 10-30h-18c-6.63 0-12-5.37-12-12v-61c0-6.63 5.371-12 12-12h111c6.63 0 12 5.37 12 12z" fill="#7d0"></path><circle cx="475" cy="140" r="7.5"></circle><circle cx="460" cy="365" r="7.5"></circle><circle cx="415" cy="470" r="7.5"></circle><circle cx="210" cy="465" r="7.5"></circle><circle cx="140" cy="45" r="7.5"></circle><circle cx="60" cy="325" r="7.5"></circle><circle cx="45" cy="100" r="7.5"></circle><path d="m310.921 482.5c-.9 0-1.803-.02-2.708-.06-15.189-.671-29.483-6.966-40.248-17.725l-222.681-222.679c-10.765-10.771-17.06-25.071-17.725-40.269-.661-15.102 4.273-29.802 13.893-41.391 1.12-1.376 2.419-2.81 3.832-4.222l16.14-16.14c1.953-1.952 5.118-1.952 7.071 0 1.953 1.953 1.953 5.119 0 7.071l-16.14 16.14c-1.172 1.172-2.241 2.35-3.178 3.5-16.832 20.279-15.452 49.6 3.179 68.24l222.679 222.679c18.624 18.613 47.937 20.005 68.186 3.235 1.191-.972 2.381-2.053 3.564-3.235l16.04-16.041c.911-.96 2.198-1.559 3.625-1.559 2.762 0 5 2.233 5 4.995v.01c0 1.326-.526 2.598-1.465 3.535l-16.13 16.13c-1.421 1.422-2.862 2.73-4.285 3.891-10.872 9.005-24.513 13.895-38.649 13.895z"></path><path d="m267.27 350.87c-1.279 0-2.56-.488-3.535-1.465l-103.141-103.14c-1.953-1.953-1.953-5.119 0-7.071s5.119-1.951 7.071 0l103.14 103.141c1.953 1.952 1.953 5.118 0 7.07-.976.977-2.256 1.465-3.535 1.465z"></path><path d="m346.09 469.35c-1.279 0-2.56-.488-3.535-1.465l-300.971-300.959c-1.953-1.953-1.953-5.119 0-7.071s5.118-1.952 7.071 0l300.97 300.96c1.953 1.952 1.953 5.118 0 7.07-.976.976-2.256 1.465-3.535 1.465z"></path><path d="m381.064 369.451c-1.623 0-3.215-.789-4.177-2.245-1.522-2.304-.888-5.405 1.416-6.928 46.46-30.689 74.197-82.195 74.197-137.778 0-90.981-74.019-165-165-165-55.582 0-107.088 27.737-137.779 74.196-1.522 2.304-4.623 2.938-6.928 1.416-2.304-1.522-2.938-4.624-1.416-6.928 32.548-49.269 87.173-78.684 146.123-78.684 96.495 0 175 78.505 175 175 0 58.951-29.415 113.576-78.685 146.122-.848.561-1.805.829-2.751.829z"></path><path d="m164.129 247.73c-1.326 0-2.598-.527-3.536-1.465l-99.17-99.18c-1.953-1.953-1.953-5.118 0-7.071l24.06-24.06c7.232-7.231 16.848-11.214 27.076-11.214s19.844 3.983 27.076 11.214l52.1 52.1c7.231 7.226 11.214 16.839 11.214 27.067 0 10.227-3.983 19.842-11.214 27.074l-24.07 24.07c-.938.938-2.209 1.465-3.536 1.465zm-92.099-104.18 92.099 92.109 20.535-20.534c5.343-5.343 8.286-12.447 8.286-20.003s-2.942-14.657-8.284-19.995l-52.102-52.101c-5.343-5.343-12.447-8.286-20.004-8.286s-14.662 2.942-20.004 8.286z"></path><path d="m366.45 450.04c-1.279 0-2.559-.488-3.535-1.464l-99.181-99.17c-.938-.938-1.465-2.21-1.465-3.536s.526-2.598 1.465-3.535l24.07-24.07c7.231-7.232 16.846-11.215 27.07-11.215s19.839 3.982 27.07 11.215l52.1 52.101c14.93 14.929 14.93 39.222 0 54.15l-24.06 24.06c-.974.976-2.255 1.464-3.534 1.464zm-92.109-104.17 92.109 92.099 20.524-20.523c5.343-5.344 8.285-12.448 8.285-20.005s-2.942-14.661-8.285-20.005l-52.1-52.101c-5.344-5.343-12.446-8.285-20-8.285s-14.656 2.942-20 8.285z"></path><path d="m112.5 462.5c-24.813 0-45-20.187-45-45s20.187-45 45-45 45 20.187 45 45-20.187 45-45 45zm0-80c-19.299 0-35 15.701-35 35s15.701 35 35 35 35-15.701 35-35-15.702-35-35-35z"></path><path d="m462.5 102.5c-16.542 0-30-13.458-30-30s13.458-30 30-30 30 13.458 30 30-13.458 30-30 30zm0-50c-11.028 0-20 8.972-20 20s8.972 20 20 20 20-8.972 20-20-8.972-20-20-20z"></path><path d="m272.5 272.5c-1.037 0-2.074-.322-2.953-.966-1.754-1.283-2.478-3.554-1.79-5.615l7.806-23.419h-11.063c-9.375 0-17-7.626-17-17v-61c0-9.374 7.626-17 17-17h111c9.374 0 17 7.626 17 17v61c0 9.374-7.626 17-17 17h-60.124l-39.936 29.044c-.876.638-1.908.956-2.94.956zm-8-115c-3.859 0-7 3.14-7 7v61c0 3.86 3.141 7 7 7h18c1.607 0 3.116.772 4.057 2.077.939 1.304 1.195 2.98.687 4.504l-5.065 15.198 28.632-20.823c.854-.622 1.884-.957 2.94-.957h61.75c3.859 0 7-3.14 7-7v-61c0-3.86-3.141-7-7-7h-111.001z"></path><path d="m317.5 192.5h-40c-2.762 0-5-2.239-5-5s2.238-5 5-5h40c2.762 0 5 2.239 5 5s-2.238 5-5 5z"></path><path d="m362.5 212.5h-85c-2.762 0-5-2.239-5-5s2.238-5 5-5h85c2.762 0 5 2.239 5 5s-2.238 5-5 5z"></path></g></g></svg>