<!-- icon666.com - MILLIONS vector ICONS FREE --><svg version="1.1" id="Capa_1" xmlns="http://www.w3.org/2000/svg" xmlns:xlink="http://www.w3.org/1999/xlink" x="0px" y="0px" viewBox="0 0 512 512" style="enable-background:new 0 0 512 512;" xml:space="preserve"><g><path style="fill:#D9D9D9;" d="M21.847,90.981c-4.644-1.758-9.8-1.143-13.857,1.67C3.932,95.449,1.5,100.063,1.5,105v332 c0,6.226,3.838,11.807,9.653,14.019l164,60c1.743,0.659,3.545,0.981,5.347,0.981V148.945L21.847,90.981z"></path><path style="fill:#D9D9D9;" d="M500.832,150.981L358.039,96.68c-4.556-1.758-9.668-1.187-13.711,1.582 c-3.721,2.507-5.891,6.592-6.328,11.017v343.776l152.153,57.964c1.743,0.659,3.545,0.981,5.347,0.981 c3.003,0,5.977-0.894,8.511-2.651c4.058-2.798,6.489-7.412,6.489-12.349V165C510.5,158.774,506.647,153.193,500.832,150.981z"></path></g><path style="fill:#E1E1E4;" d="M338,109.279c-0.038,0.385-0.286,0.707-0.293,1.097c-0.22,10.298-2.109,18.105-12.788,37.075 l-0.005,0.024c-7.573,12.957-18.732,30.038-35.121,55.157c-7.734,11.836-16.611,25.444-26.807,41.191 c-7.969-12.29-15.146-23.306-21.621-33.237c-16.479-25.239-28.286-43.315-36.533-57.378c-3.662-6.255-11.265-9.009-18.12-6.489 l-6.123,2.26l-0.088-0.033V512c1.802,0,3.618-0.322,5.347-0.981L338,453.055V109.279z"></path><polygon style="fill:#13C37B;" points="364.827,131.357 480.5,175.346 480.5,475.238 338,420.952 180.5,480.952 31.5,426.667 31.5,126.762 169.968,177.036 180.456,181.005 185.458,179.159 "></polygon><path style="fill:#61DE56;" d="M328.403,141.064c-1.043,1.984-2.199,4.103-3.484,6.387l-0.005,0.024 c-7.573,12.957-18.732,30.038-35.121,55.157c-7.734,11.836-16.611,25.444-26.807,41.191c-7.969-12.29-15.146-23.306-21.621-33.237 c-10.242-15.686-18.676-28.602-25.575-39.51l-30.331,8.083l-4.958,1.83v299.963l157.5-60V138.507L328.403,141.064z"></path><path style="fill:#FFFFFF;" d="M263,286.494c-5.098,0-9.858-2.593-12.612-6.885c-13.14-20.42-24.448-37.764-34.16-52.632 c-16.816-25.767-28.843-44.238-37.266-58.594c-17.52-29.077-22.046-43.901-20.947-68.848C161.179,43.638,207.277,0,263,0 c57.891,0,105,47.109,105,105c0,2.988-0.073,5.537-0.483,8.101c-0.176,14.678-4.365,27.583-16.436,49.058 c-7.866,13.477-19.307,31.025-36.167,56.865c-10.737,16.436-23.672,36.284-39.302,60.586 C272.858,283.901,268.112,286.494,263,286.494z"></path><path style="fill:#FD3018;" d="M263,0c-55.723,0-101.821,43.638-104.985,99.536c-1.099,24.946,3.428,39.771,20.947,68.848 c8.423,14.355,20.449,32.827,37.266,58.594c9.712,14.868,21.021,32.212,34.16,52.632c2.754,4.292,7.515,6.885,12.612,6.885 c5.112,0,9.858-2.593,12.612-6.885c15.63-24.302,28.564-44.15,39.302-60.586c16.86-25.84,28.301-43.389,36.167-56.865 c12.07-21.475,16.26-34.38,16.436-49.058c0.41-2.563,0.483-5.112,0.483-8.101C368,47.109,320.891,0,263,0z M263,150 c-24.853,0-45-20.147-45-45s20.147-45,45-45s45,20.147,45,45S287.853,150,263,150z"></path><path style="fill:#E61E14;" d="M308,105c0,24.853-20.147,45-45,45v136.494c5.112,0,9.858-2.593,12.612-6.885 c15.63-24.302,28.564-44.15,39.302-60.586c16.86-25.84,28.301-43.389,36.167-56.865c12.07-21.475,16.26-34.38,16.436-49.058 c0.41-2.563,0.483-5.112,0.483-8.101C368,47.109,320.891,0,263,0v60C287.853,60,308,80.147,308,105z"></path></svg>